<svg width="801" height="789" viewBox="0 0 801 789" fill="none" xmlns="http://www.w3.org/2000/svg">
<path fill-rule="evenodd" clip-rule="evenodd" d="M801.005 488.188L799.888 494.46L799.811 494.818C798.173 504.125 796.61 513.04 794.692 521.883C774.748 613.847 723.236 683.232 639.636 725.207C537.692 776.393 436.409 769.939 340.22 708.158C318.612 694.28 299.582 675.82 281.163 657.654C239.293 616.375 197.69 574.83 156.087 533.285L155.82 533.019C122.41 499.648 89.0008 466.279 55.4515 433.048C34.1482 411.955 23.0837 387.859 28.5461 357.778C33.4495 330.742 49.697 312.193 75.0781 299.644L66.7702 291.229C60.5456 284.899 54.4353 278.693 48.1726 272.654C36.4602 261.356 27.0979 248.721 23.1218 232.6C12.6035 189.996 36.0664 149.036 78.165 136.607C79.321 136.265 80.4643 135.884 81.7346 135.459L83.9577 134.726C79.9561 102.43 89.8519 75.5827 116.376 56.4079C143.117 37.0881 171.661 37.0696 199.875 50.5982C202.187 47.5919 204.397 44.4904 206.595 41.394L206.785 41.1024C211.676 34.181 216.541 27.3009 222.512 21.5834C252.314 -6.91777 298.947 -7.39561 328.419 21.3631C364.737 56.8011 400.573 92.7385 436.396 128.675C451.424 143.745 466.452 158.814 481.518 173.847C498.388 190.678 515.258 207.503 532.154 224.311C533.602 225.761 535.215 227.058 538.391 227.688L536.371 218.92C534.86 212.356 533.348 205.782 531.785 199.232C529.74 190.679 527.606 182.147 525.459 173.614C520.95 155.648 516.44 137.683 512.87 119.534C504.105 75.0583 533.716 31.0438 577.644 21.4352C623.249 11.4595 668.549 38.3675 679.029 83.188C693.739 146.062 712.388 207.555 739.331 266.317C745.2 279.118 751.425 291.755 757.662 304.392C763.277 315.783 768.892 327.174 774.24 338.686C788.417 369.151 796.521 401.338 800.383 435.028C801.005 452.672 801.005 470.049 801.005 488.188ZM417.672 264.236C425.002 271.551 427.746 280.09 424.646 290.187C421.8 299.447 415.106 304.56 405.985 306.255C396.661 307.986 389.293 303.959 382.763 297.411C316.922 231.476 251.005 165.611 185.063 99.7803C171.381 86.1143 153.267 85.7781 140.246 98.6692C127.53 111.255 128.114 129.894 141.732 143.469L339.674 340.758C351.069 352.119 352.11 366.824 342.214 376.759C332.268 386.753 317.354 386.139 306.087 375.043C290.843 360.023 275.726 344.866 260.571 329.762L207.179 276.581C178.724 248.231 150.281 219.886 121.801 191.571C109.174 179.03 91.9099 178.13 79.4226 189.049C64.5598 202.049 64.7757 221.483 80.0705 236.722L163.607 319.926C203.876 360.021 244.145 400.117 284.377 440.24C295.644 451.465 296.241 465.587 286.269 475.59C276.348 485.544 261.955 485.203 250.84 474.435C243.485 467.314 236.244 460.069 229.003 452.822L219.12 442.929L192.151 416.089C170.797 394.848 149.443 373.606 128.165 352.302C118.358 342.488 106.963 339.157 94.0567 344.241C73.2234 352.447 68.6503 377.91 85.0247 394.386C103.33 412.807 121.75 431.11 140.182 449.413C150.205 459.369 160.228 469.325 170.225 479.3C187.514 496.539 204.765 513.826 222.004 531.112C258.716 567.916 295.428 604.72 332.585 641.074C405.807 712.716 520.111 730.833 611.524 686.304C739.077 624.175 789.75 472.753 724.646 346.604C683.716 267.299 652.288 184.66 633.195 97.391C631.963 91.7668 629.169 86.0417 625.688 81.4364C615.144 67.5059 596.038 63.4851 580.401 71.1253C563.645 79.3161 556.188 96.7756 560.939 116.316C575.917 177.836 590.881 239.358 605.667 300.924C606.709 305.249 607.281 310.184 606.277 314.414C602.314 331.201 581.303 342.025 563.683 324.063C545.365 305.392 526.844 286.928 508.322 268.463L508.17 268.327L487.375 247.574C424.748 184.963 362.121 122.355 299.481 59.7632C285.025 45.3154 267.202 44.3881 254.168 57.313C241.084 70.2747 241.77 88.2896 256.023 102.577C282.331 128.951 308.665 155.296 335.355 181.988L417.672 264.236Z" fill="#040404"/>
<path d="M1.49882 623C2.27371 621.912 2.51709 620.822 3.24118 619.739L3.27928 619.702C5.88344 615.826 8.36059 612.132 11.7397 609.646C24.138 600.523 41.0841 606.161 47.8677 621.473C58.5257 645.477 72.7407 667.039 90.8809 686.009C115.233 711.483 143.98 730.244 177.085 742.374C186.981 745.999 192.38 753.513 193.002 763.861C193.612 773.999 188.798 781.693 179.854 786.324C172.398 790.191 164.712 789.074 157.078 786.084C87.235 758.747 33.1573 705.083 1.56435 637.07C2.00044 635 1.49882 628.122 1.49882 623Z" fill="#040404"/>
<path d="M236.473 686.623C236.041 674.774 228.851 666.955 213.505 662.01C191.198 653.242 172.182 640.662 155.858 623.954C141.884 609.654 131.328 593.154 123.02 575.029C117.558 563.102 105.464 558.098 93.2945 562.016C82.2046 565.585 75.3322 577.012 77.6442 588.964C78.4572 593.12 80.4135 597.131 82.2935 600.988C107.827 653.333 147.83 689.625 202.873 709.007C220.314 715.146 237.095 703.788 236.473 686.623Z" fill="#040404"/>
<path d="M72.4464 675.5C58.4728 661.201 53.9796 638.521 45.6717 620.396C40.2093 608.469 28.1158 603.465 15.9461 607.383C4.85613 610.952 0.142025 622.487 0.0132011 632C0.000215077 632.959 -0.00109349 632.998 0.150551 633.882C0.157041 633.92 0.163812 633.959 0.170875 634C0.498816 635 0.714518 635.327 1.56435 637.07C27.0979 689.415 36.2693 691.618 91.3124 711C108.754 717.139 73.0688 692.666 72.4464 675.5Z" fill="#040404"/>
</svg>
